<?xml version="1.0" encoding="UTF-8"?>
<svg version="1.1" xmlns="http://www.w3.org/2000/svg" width="1200" height="1200">
<path d="M0 0 C3.96 0 7.92 0 12 0 C12 11.55 12 23.1 12 35 C13.98 32.525 13.98 32.525 16 30 C22.81206709 25.02633595 30.92333621 25.237151 39 26 C44.84347804 27.0371942 48.22623957 29.57404128 51.81640625 34.25390625 C55.27332055 39.35371052 55.87162852 44.92704155 56 51 C55.67 52.32 55.34 53.64 55 55 C68.53 55 82.06 55 96 55 C96 41.8 96 28.6 96 15 C87.75 15 79.5 15 71 15 C71 11.7 71 8.4 71 5 C91.46 5 111.92 5 133 5 C133 8.3 133 11.6 133 15 C124.75 15 116.5 15 108 15 C108 28.2 108 41.4 108 55 C120.87 55 133.74 55 147 55 C147.33 52.36 147.66 49.72 148 47 C150.6851783 39.26624268 155.13707506 32.93692779 162.1796875 28.68359375 C170.1644399 24.92683319 179.93330598 24.40369874 188.375 27.0625 C195.2438 30.21684163 200.20495186 35.27188952 203.30859375 42.10546875 C205.02421557 46.80646639 205 49.60412701 205 55 C210.94 55 216.88 55 223 55 C223.226875 53.535625 223.45375 52.07125 223.6875 50.5625 C225.2677757 42.80378528 228.5796183 36.1668007 234.95703125 31.28515625 C245.3536053 24.74505518 257.77564439 24.43897806 269.6015625 26.68359375 C272.11596114 27.36254635 274.55841137 28.09650465 277 29 C276.57742724 30.4835001 276.13643678 31.96176424 275.6875 33.4375 C275.44386719 34.26121094 275.20023438 35.08492187 274.94921875 35.93359375 C274.47935547 36.95646484 274.47935547 36.95646484 274 38 C271 39 271 39 268.1875 38.0625 C261.11632113 35.88096609 252.16526094 35.54079371 245.375 38.6875 C238.59815455 42.84897439 237.59471463 47.21585611 235 55 C254.47 55 273.94 55 294 55 C294.33 52.36 294.66 49.72 295 47 C297.81774293 39.02452 301.49894821 33.07977054 309 29 C309.59296875 28.66355469 310.1859375 28.32710937 310.796875 27.98046875 C317.68357549 24.75784608 326.40519097 24.80399824 333.65625 26.69140625 C335.93532151 27.62410846 337.92347899 28.67933264 340 30 C340.62390625 30.38929688 341.2478125 30.77859375 341.890625 31.1796875 C347.57711275 35.35801981 350.55898351 41.5042749 353 48 C353.33 50.31 353.66 52.62 354 55 C377.43 55 400.86 55 425 55 C425 85.03 425 115.06 425 146 C187.4 146 -50.2 146 -295 146 C-295 115.97 -295 85.94 -295 55 C-263.65 55 -232.3 55 -200 55 C-200 41.8 -200 28.6 -200 15 C-208.25 15 -216.5 15 -225 15 C-225 11.7 -225 8.4 -225 5 C-204.54 5 -184.08 5 -163 5 C-163 8.3 -163 11.6 -163 15 C-171.25 15 -179.5 15 -188 15 C-188 28.2 -188 41.4 -188 55 C-175.13 55 -162.26 55 -149 55 C-148.67 52.36 -148.34 49.72 -148 47 C-145.3148217 39.26624268 -140.86292494 32.93692779 -133.8203125 28.68359375 C-125.8355601 24.92683319 -116.06669402 24.40369874 -107.625 27.0625 C-100.7562 30.21684163 -95.79504814 35.27188952 -92.69140625 42.10546875 C-90.97578443 46.80646639 -91 49.60412701 -91 55 C-85.06 55 -79.12 55 -73 55 C-72.773125 53.535625 -72.54625 52.07125 -72.3125 50.5625 C-70.7322243 42.80378528 -67.4203817 36.1668007 -61.04296875 31.28515625 C-50.6463947 24.74505518 -38.22435561 24.43897806 -26.3984375 26.68359375 C-23.88403886 27.36254635 -21.44158863 28.09650465 -19 29 C-19.42257276 30.4835001 -19.86356322 31.96176424 -20.3125 33.4375 C-20.55613281 34.26121094 -20.79976562 35.08492187 -21.05078125 35.93359375 C-21.52064453 36.95646484 -21.52064453 36.95646484 -22 38 C-25 39 -25 39 -27.8125 38.0625 C-34.88367887 35.88096609 -43.83473906 35.54079371 -50.625 38.6875 C-57.40184545 42.84897439 -58.40528537 47.21585611 -61 55 C-40.87 55 -20.74 55 0 55 C0 36.85 0 18.7 0 0 Z M-132.63671875 39.48046875 C-136.34642637 44.12557542 -136.1734912 46.38792964 -137 53 C-125.78 53 -114.56 53 -103 53 C-103.88580588 43.97550113 -103.88580588 43.97550113 -109.0625 37.1875 C-116.71762571 34.09287471 -126.16290067 33.62467627 -132.63671875 39.48046875 Z M16.125 40.75 C13.03831463 45.47081293 12 49.38607714 12 55 C22.56 55 33.12 55 44 55 C44.16840774 46.27243186 44.16840774 46.27243186 41 39 C33.56740998 32.27222455 22.89716742 34.27227464 16.125 40.75 Z M163.36328125 39.48046875 C159.65357363 44.12557542 159.8265088 46.38792964 159 53 C170.22 53 181.44 53 193 53 C192.11419412 43.97550113 192.11419412 43.97550113 186.9375 37.1875 C179.28237429 34.09287471 169.83709933 33.62467627 163.36328125 39.48046875 Z M311.46484375 39.328125 C307.06632993 44.20111407 306 48.5760447 306 55 C317.88 55 329.76 55 342 55 C340.9752025 46.80161998 340.47446534 43.14356388 334.375 37.625 C326.83800389 33.99607595 318.07544294 33.60903156 311.46484375 39.328125 Z " fill="#3497DB" transform="translate(535,657)"/>
<path d="M0 0 C237.6 0 475.2 0 720 0 C720 5.28 720 10.56 720 16 C482.4 16 244.8 16 0 16 C0 10.72 0 5.44 0 0 Z " fill="#3497DB" transform="translate(240,817)"/>
<path d="M0 0 C21.12 0 42.24 0 64 0 C64 68.31 64 136.62 64 207 C42.88 207 21.76 207 0 207 C0 138.69 0 70.38 0 0 Z M10 9 C10 71.37 10 133.74 10 198 C24.52 198 39.04 198 54 198 C54 135.63 54 73.26 54 9 C39.48 9 24.96 9 10 9 Z " fill="#34485E" transform="translate(640,393)"/>
<path d="M0 0 C21.12 0 42.24 0 64 0 C64 49.17 64 98.34 64 149 C42.88 149 21.76 149 0 149 C0 99.83 0 50.66 0 0 Z M10 10 C10 52.9 10 95.8 10 140 C24.52 140 39.04 140 54 140 C54 97.1 54 54.2 54 10 C39.48 10 24.96 10 10 10 Z " fill="#34485E" transform="translate(496,451)"/>
<path d="M0 0 C21.12 0 42.24 0 64 0 C64 32.67 64 65.34 64 99 C42.88 99 21.76 99 0 99 C0 66.33 0 33.66 0 0 Z M10 9 C10 35.73 10 62.46 10 90 C24.52 90 39.04 90 54 90 C54 63.27 54 36.54 54 9 C39.48 9 24.96 9 10 9 Z " fill="#34485E" transform="translate(568,501)"/>
<path d="M0 0 C0.62390625 0.38929688 1.2478125 0.77859375 1.890625 1.1796875 C8.06901688 5.71946241 11.73149759 13.14893927 13.64453125 20.46484375 C15.19898621 31.55101155 14.54633489 43.12014809 8.234375 52.671875 C3.31773783 58.59506782 -1.7180055 61.5726685 -9 64 C-18.62352664 64.76337468 -27.04252005 64.40386263 -34.9921875 58.52734375 C-41.70294861 52.43581596 -45.69428393 44.05684454 -46.23828125 35.05859375 C-46.52329729 23.21373778 -45.49456603 13.28572813 -37.77734375 3.72265625 C-27.92398007 -5.82752701 -11.50216801 -7.31537885 0 0 Z M-28.53515625 9.328125 C-32.93367007 14.20111407 -34 18.5760447 -34 25 C-22.12 25 -10.24 25 2 25 C0.9752025 16.80161998 0.47446534 13.14356388 -5.625 7.625 C-13.16199611 3.99607595 -21.92455706 3.60903156 -28.53515625 9.328125 Z " fill="#334A60" transform="translate(875,687)"/>
<path d="M0 0 C3.96 0 7.92 0 12 0 C12 11.55 12 23.1 12 35 C13.32 33.35 14.64 31.7 16 30 C22.81206709 25.02633595 30.92333621 25.237151 39 26 C44.81773352 27.03262465 48.0726033 29.55810124 51.7734375 34.0859375 C58.89478341 45.19886582 56.09941422 63.18534326 56.125 76 C56.12767883 76.77926849 56.13035767 77.55853699 56.13311768 78.36141968 C56.1389331 80.59516127 56.13726026 82.82875777 56.1328125 85.0625 C56.13168457 86.37347656 56.13055664 87.68445313 56.12939453 89.03515625 C56 92 56 92 55 93 C53.14712498 93.07226502 51.29166122 93.0838122 49.4375 93.0625 C48.42558594 93.05347656 47.41367187 93.04445313 46.37109375 93.03515625 C45.58863281 93.02355469 44.80617188 93.01195312 44 93 C43.99413376 92.4267247 43.98826752 91.8534494 43.98222351 91.26280212 C43.91810635 85.27620039 43.83363999 79.29012715 43.73754883 73.30395508 C43.70437032 71.07225529 43.67631652 68.84047302 43.65356445 66.60864258 C43.61988874 63.39368666 43.56756515 60.1794818 43.51171875 56.96484375 C43.50532883 55.97290512 43.4989389 54.98096649 43.49235535 53.95896912 C43.37200125 48.24078725 42.82733996 44.02049852 40 39 C35.38360105 35.9224007 30.16458082 35.40158693 24.70703125 36.43359375 C20.17439043 37.93880468 17.48590891 39.79307723 15 44 C12.99935088 49.68182533 12.66439315 54.87669234 12.5859375 60.87109375 C12.56657135 61.793423 12.5472052 62.71575226 12.5272522 63.66603088 C12.4678388 66.58976211 12.42122491 69.51353353 12.375 72.4375 C12.33678498 74.4290529 12.29773123 76.4205899 12.2578125 78.41210938 C12.16216896 83.27460923 12.07799779 88.13718638 12 93 C8.04 93 4.08 93 0 93 C0 62.31 0 31.62 0 0 Z " fill="#334A60" transform="translate(535,657)"/>
<path d="M0 0 C6.08692555 4.8829183 9.00753147 10.02231336 10.8828125 17.5234375 C10.8828125 22.1434375 10.8828125 26.7634375 10.8828125 31.5234375 C-4.2971875 31.5234375 -19.4771875 31.5234375 -35.1171875 31.5234375 C-33.47950354 42.56176821 -33.47950354 42.56176821 -27.0546875 50.3359375 C-19.37854035 55.04067285 -7.00602657 52.97776045 1.3828125 51.0234375 C3.22099837 50.54158295 5.05658289 50.04879122 6.8828125 49.5234375 C8.0078125 56.1484375 8.0078125 56.1484375 6.8828125 59.5234375 C5.2109375 60.4375 5.2109375 60.4375 3.1328125 61.1484375 C2.45734375 61.38820313 1.781875 61.62796875 1.0859375 61.875 C-8.75347817 64.77099823 -21.57504738 65.42867851 -30.9765625 60.83984375 C-38.98879832 55.91261114 -44.04475929 49.7862715 -46.65917969 40.62402344 C-48.82131572 30.70770234 -48.158334 18.38633813 -43.1171875 9.5234375 C-38.96266347 3.42312374 -33.39678581 -1.69398845 -26.30078125 -4.08984375 C-17.07327047 -5.72405407 -7.77921891 -5.42535932 0 0 Z M-30.75390625 9.00390625 C-34.46361387 13.64901292 -34.2906787 15.91136714 -35.1171875 22.5234375 C-23.8971875 22.5234375 -12.6771875 22.5234375 -1.1171875 22.5234375 C-2.00299338 13.49893863 -2.00299338 13.49893863 -7.1796875 6.7109375 C-14.83481321 3.61631221 -24.28008817 3.14811377 -30.75390625 9.00390625 Z " fill="#334A5F" transform="translate(729.1171875,687.4765625)"/>
<path d="M0 0 C6.08692555 4.8829183 9.00753147 10.02231336 10.8828125 17.5234375 C10.8828125 22.1434375 10.8828125 26.7634375 10.8828125 31.5234375 C-4.2971875 31.5234375 -19.4771875 31.5234375 -35.1171875 31.5234375 C-33.47950354 42.56176821 -33.47950354 42.56176821 -27.0546875 50.3359375 C-19.37854035 55.04067285 -7.00602657 52.97776045 1.3828125 51.0234375 C3.22099837 50.54158295 5.05658289 50.04879122 6.8828125 49.5234375 C8.0078125 56.1484375 8.0078125 56.1484375 6.8828125 59.5234375 C5.2109375 60.4375 5.2109375 60.4375 3.1328125 61.1484375 C2.45734375 61.38820313 1.781875 61.62796875 1.0859375 61.875 C-8.75347817 64.77099823 -21.57504738 65.42867851 -30.9765625 60.83984375 C-38.98879832 55.91261114 -44.04475929 49.7862715 -46.65917969 40.62402344 C-48.82131572 30.70770234 -48.158334 18.38633813 -43.1171875 9.5234375 C-38.96266347 3.42312374 -33.39678581 -1.69398845 -26.30078125 -4.08984375 C-17.07327047 -5.72405407 -7.77921891 -5.42535932 0 0 Z M-30.75390625 9.00390625 C-34.46361387 13.64901292 -34.2906787 15.91136714 -35.1171875 22.5234375 C-23.8971875 22.5234375 -12.6771875 22.5234375 -1.1171875 22.5234375 C-2.00299338 13.49893863 -2.00299338 13.49893863 -7.1796875 6.7109375 C-14.83481321 3.61631221 -24.28008817 3.14811377 -30.75390625 9.00390625 Z " fill="#334A5F" transform="translate(433.1171875,687.4765625)"/>
<path d="M0 0 C20.46 0 40.92 0 62 0 C62 3.3 62 6.6 62 10 C53.75 10 45.5 10 37 10 C37 35.74 37 61.48 37 88 C33.04 88 29.08 88 25 88 C25 62.26 25 36.52 25 10 C16.75 10 8.5 10 0 10 C0 6.7 0 3.4 0 0 Z " fill="#334A60" transform="translate(606,662)"/>
<path d="M0 0 C20.46 0 40.92 0 62 0 C62 3.3 62 6.6 62 10 C53.75 10 45.5 10 37 10 C37 35.74 37 61.48 37 88 C33.04 88 29.08 88 25 88 C25 62.26 25 36.52 25 10 C16.75 10 8.5 10 0 10 C0 6.7 0 3.4 0 0 Z " fill="#334A60" transform="translate(310,662)"/>
<path d="M0 0 C-0.42257276 1.4835001 -0.86356322 2.96176424 -1.3125 4.4375 C-1.55613281 5.26121094 -1.79976562 6.08492187 -2.05078125 6.93359375 C-2.36402344 7.61550781 -2.67726563 8.29742188 -3 9 C-6 10 -6 10 -8.8125 9.0625 C-15.88367887 6.88096609 -24.83473906 6.54079371 -31.625 9.6875 C-37.45987074 13.25325434 -39.42178561 17.47223663 -41 24 C-41.78747582 33.64402205 -41.94395808 42.09670077 -35.6875 49.875 C-28.98470784 55.17488217 -21.13107737 54.44600846 -13 54 C-8.96356356 53.48883556 -4.98516136 52.817469 -1 52 C-1 54.97 -1 57.94 -1 61 C-10.60147816 66.13567436 -22.49590427 66.55904867 -33.12109375 64.3515625 C-40.39280432 61.69699109 -46.69393241 56.95096839 -50.375 50.0625 C-54.97099387 39.38596557 -55.8894065 27.31441187 -51.96875 16.2421875 C-48.24247156 7.61765595 -42.89076008 1.82036945 -34.125 -1.875 C-23.34586455 -5.01891451 -10.38540626 -3.84305782 0 0 Z " fill="#334A61" transform="translate(812,686)"/>
<path d="M0 0 C-0.42257276 1.4835001 -0.86356322 2.96176424 -1.3125 4.4375 C-1.55613281 5.26121094 -1.79976562 6.08492187 -2.05078125 6.93359375 C-2.36402344 7.61550781 -2.67726563 8.29742188 -3 9 C-6 10 -6 10 -8.8125 9.0625 C-15.88367887 6.88096609 -24.83473906 6.54079371 -31.625 9.6875 C-37.45987074 13.25325434 -39.42178561 17.47223663 -41 24 C-41.78747582 33.64402205 -41.94395808 42.09670077 -35.6875 49.875 C-28.98470784 55.17488217 -21.13107737 54.44600846 -13 54 C-8.96356356 53.48883556 -4.98516136 52.817469 -1 52 C-1 54.97 -1 57.94 -1 61 C-10.60147816 66.13567436 -22.49590427 66.55904867 -33.12109375 64.3515625 C-40.39280432 61.69699109 -46.69393241 56.95096839 -50.375 50.0625 C-54.97099387 39.38596557 -55.8894065 27.31441187 -51.96875 16.2421875 C-48.24247156 7.61765595 -42.89076008 1.82036945 -34.125 -1.875 C-23.34586455 -5.01891451 -10.38540626 -3.84305782 0 0 Z " fill="#334A61" transform="translate(516,686)"/>
<path d="M0 0 C1.51815699 0.00015911 3.0363194 0.00585313 4.55444336 0.01586914 C5.35208603 0.01728409 6.1497287 0.01869904 6.97154236 0.02015686 C9.52916146 0.02577223 12.08669429 0.03832727 14.64428711 0.05102539 C16.37410356 0.05603841 18.10392137 0.06060166 19.83374023 0.06469727 C24.08312264 0.07574664 28.33244023 0.09302153 32.58178711 0.11352539 C32.62767732 2.32947494 32.6602283 4.54570302 32.68725586 6.76196289 C32.7068335 7.9960791 32.72641113 9.23019531 32.74658203 10.50170898 C32.45601957 16.86997719 30.60286243 21.98607768 26.20678711 26.61352539 C19.81282727 30.26721673 14.71152443 30.55858103 7.58178711 29.11352539 C3.40334605 27.29681189 0.9578869 24.99448838 -1.41821289 21.11352539 C-3.65294766 14.48572226 -4.94557066 8.10101586 -4.41821289 1.11352539 C-3.41821289 0.11352539 -3.41821289 0.11352539 0 0 Z " fill="#3497DB" transform="translate(844.418212890625,711.886474609375)"/>
</svg>
