<?xml version="1.0" standalone="no"?>
<!DOCTYPE svg PUBLIC "-//W3C//DTD SVG 20010904//EN"
 "http://www.w3.org/TR/2001/REC-SVG-20010904/DTD/svg10.dtd">
<svg version="1.0" xmlns="http://www.w3.org/2000/svg"
 width="800.000000pt" height="800.000000pt" viewBox="0 0 800.000000 800.000000"
 preserveAspectRatio="xMidYMid meet">
<metadata>
Created by potrace 1.14, written by Peter Selinger 2001-2017
</metadata>
<g transform="translate(0.000000,800.000000) scale(0.100000,-0.100000)"
fill="#000000" stroke="none">
<path d="M3957 7585 c-1 -1 -69 -5 -152 -9 -82 -3 -177 -10 -210 -16 -33 -5
-85 -12 -115 -15 -30 -3 -62 -8 -70 -10 -8 -2 -32 -6 -52 -9 -21 -3 -57 -10
-80 -15 -24 -6 -54 -12 -68 -15 -92 -17 -361 -98 -475 -143 -258 -101 -540
-244 -588 -298 -10 -11 -27 -40 -39 -64 -72 -155 37 -341 207 -352 62 -4 102
9 205 65 296 162 659 290 940 331 24 4 47 8 50 10 3 2 37 6 75 10 39 4 73 9
76 11 8 5 267 17 349 17 66 0 271 -12 325 -18 109 -13 141 -18 240 -36 422
-78 844 -257 1201 -508 535 -376 944 -929 1153 -1556 52 -156 110 -408 126
-550 3 -27 8 -59 10 -70 6 -28 18 -278 18 -355 -1 -75 -13 -301 -17 -327 -2
-10 -7 -45 -11 -78 -34 -302 -161 -704 -315 -1000 -98 -187 -247 -414 -359
-545 -266 -311 -522 -527 -856 -719 -329 -190 -778 -342 -1117 -377 -34 -3
-66 -8 -69 -10 -8 -5 -259 -17 -344 -17 -76 0 -279 11 -335 18 -19 3 -57 7
-85 11 -41 5 -201 34 -267 49 -321 72 -653 210 -948 395 -77 48 -207 138 -237
164 -7 6 -18 16 -25 21 -434 328 -811 851 -1003 1389 -65 183 -132 456 -150
621 -4 33 -9 68 -11 78 -6 32 -17 279 -17 362 1 85 11 268 19 323 19 143 31
213 54 317 11 50 22 98 24 107 56 222 166 499 277 700 67 120 79 166 65 238
-20 98 -75 162 -166 193 -83 28 -174 8 -243 -52 -72 -64 -231 -388 -334 -680
-38 -110 -112 -379 -128 -466 -24 -140 -35 -208 -40 -255 -2 -30 -7 -64 -9
-76 -15 -73 -23 -473 -12 -610 57 -728 285 -1341 710 -1914 38 -52 73 -97 76
-100 3 -3 34 -39 69 -80 406 -480 976 -865 1579 -1066 202 -68 470 -132 627
-149 33 -4 62 -9 65 -10 3 -2 48 -7 100 -10 52 -4 104 -9 115 -11 32 -7 403
-6 480 0 99 9 164 16 205 21 19 3 55 7 80 10 25 4 77 13 115 20 39 8 81 16 95
19 313 54 770 234 1105 434 164 98 420 287 545 402 248 228 432 443 606 706
52 78 94 145 94 148 0 4 11 24 24 44 72 114 204 404 270 592 31 87 95 308 111
385 31 143 47 233 60 355 3 25 7 54 9 66 16 81 23 476 11 619 -12 143 -16 173
-35 300 -24 161 -24 163 -62 315 -56 228 -147 483 -256 709 -116 243 -343 588
-511 776 -220 246 -416 421 -670 600 -67 47 -123 85 -125 85 -3 0 -42 23 -88
52 -180 111 -515 263 -733 331 -127 40 -259 73 -395 101 -130 25 -158 30 -250
41 -30 4 -68 8 -85 10 -58 7 -403 24 -408 20z"/>
<path d="M4349 5845 c-62 -20 -132 -91 -152 -153 -9 -26 -27 -90 -41 -142 -28
-102 -84 -314 -91 -342 -2 -10 -31 -118 -64 -240 -33 -123 -92 -342 -131 -488
-39 -146 -112 -416 -161 -600 -129 -478 -156 -579 -163 -610 -11 -42 -105
-394 -162 -602 -35 -131 -64 -257 -64 -280 2 -131 102 -236 230 -243 100 -6
173 30 229 112 13 19 48 131 87 275 36 134 76 284 89 333 13 50 40 151 60 225
61 226 76 283 90 335 22 89 215 807 245 915 16 58 41 150 56 205 14 55 30 116
35 135 5 19 11 42 13 50 2 8 22 83 44 165 199 739 195 721 168 798 -45 126
-186 194 -317 152z"/>
<path d="M2760 5238 c-54 -15 -83 -40 -269 -228 -336 -340 -457 -485 -541
-655 -68 -139 -84 -203 -84 -355 0 -147 14 -211 79 -345 82 -170 206 -322 538
-657 115 -116 213 -207 239 -220 59 -31 165 -32 224 -1 115 61 164 194 117
315 -14 37 -61 91 -218 251 -315 321 -389 408 -448 521 -27 52 -31 72 -32 136
0 68 4 82 38 145 52 97 168 233 417 487 117 119 219 226 226 236 8 11 20 45
28 75 48 184 -127 349 -314 295z"/>
<path d="M5105 5241 c-72 -18 -127 -64 -164 -138 -12 -24 -19 -43 -17 -43 3 0
1 -13 -4 -29 -9 -31 4 -107 25 -147 7 -13 102 -116 211 -228 328 -336 394
-414 450 -530 29 -59 33 -77 31 -135 -3 -56 -9 -79 -41 -137 -64 -116 -141
-206 -440 -510 -207 -212 -208 -213 -225 -266 -55 -169 81 -341 257 -326 34 4
73 15 97 29 43 25 362 342 502 498 195 218 302 397 338 567 15 67 14 227 0
298 -51 245 -177 424 -613 864 -148 149 -203 198 -244 217 -53 25 -105 30
-163 16z"/>
</g>
</svg>
